# xmcd
#
# Track frame offsets: 
#        150
#        11315
#        25564
#        42288
#        60403
#        73414
#        94181
#        118641
#        138542
#        163921
#        177255
#        192213
#        209279
#        227211
#        245140
#        259914
#
# Disc length: 3734 seconds
#
# Revision: 0
# Processed by: cddbd v1.5.2PL0 Copyright (c) Steve Scherf et al.
# Submitted via: ExactAudioCopy v1.3
#
DISCID=e40e9410
DTITLE=Big Creek Slim and Rodrigo Mantovani - First Born
DYEAR=2018
DGENRE=Blues
TTITLE0=Teddy's On A Sunday Night
TTITLE1=Anytime Is The Right Time
TTITLE2=Poor Boy A Long Way From Home
TTITLE3=I've Got Blood In My Eyes For You
TTITLE4=Honey Time
TTITLE5=Drop Down Mama
TTITLE6=First Born
TTITLE7=Baby Please Don't Go
TTITLE8=How Come You Hold Your Head So High
TTITLE9=Some Of These Days
TTITLE10=Million Years Blues
TTITLE11=Motherless Children
TTITLE12=Sugar Mama
TTITLE13=Rollin' And Tumblin'
TTITLE14=VW-Van Blues
TTITLE15=I Love My Baby
EXTD=
EXTT0=
EXTT1=
EXTT2=
EXTT3=
EXTT4=
EXTT5=
EXTT6=
EXTT7=
EXTT8=
EXTT9=
EXTT10=
EXTT11=
EXTT12=
EXTT13=
EXTT14=
EXTT15=
PLAYORDER=
